<?xml version="1.0" encoding="utf-8"?>
<!-- Generator: Adobe Illustrator 25.2.1, SVG Export Plug-In . SVG Version: 6.00 Build 0)  -->
<svg version="1.1" id="图层_1" xmlns="http://www.w3.org/2000/svg" xmlns:xlink="http://www.w3.org/1999/xlink" x="0px" y="0px"
	 viewBox="0 0 200 200" style="enable-background:new 0 0 200 200;" xml:space="preserve">
<style type="text/css">
	.st0{fill:#FFE9B4;}
	.st1{fill:#FFB02C;}
	.st2{fill:#FFCA28;}
	.st3{fill:#1296DB;}
</style>
<path class="st0" d="M179.4,172.5h-159c-4.2,0-7.7-3.1-7.7-6.8V54.1c0-3.8,3.4-6.8,7.7-6.8h159.1c4.2,0,7.7,3.1,7.7,6.8v111.5
	C187.1,169.4,183.7,172.5,179.4,172.5z"/>
<path class="st1" d="M100,80.3H12.7V41.1c0-4.3,3.4-7.7,7.7-7.7h59.8c3.4,0,6.4,2.2,7.4,5.5L100,80.3z"/>
<path class="st2" d="M179.4,172.5h-159c-4.2,0-7.7-3.4-7.7-7.7V65.5c0-4.2,3.4-7.7,7.7-7.7h159.1c4.2,0,7.7,3.4,7.7,7.7v99.3
	C187.1,169,183.7,172.5,179.4,172.5z"/>
<path class="st3" d="M187.2,90c0,8.8-1.6,17-4.9,24.9s-7.9,14.7-13.7,20.7c-5.8,6-12.6,10.9-20.3,14.7c-7.9,3.9-16.1,6.1-25.2,7
	c-0.5,0.2-1.1,0.2-1.6,0.2c-0.5,0-1.1,0-1.6,0H90.5c-1.9,0-3.9-0.4-5.8-1.1s-3.5-1.6-5.1-2.8c-1.4-1.2-2.6-2.6-3.7-4.2
	c-1.1-1.6-1.4-3.3-1.4-4.9c0-1.8,0.5-3.3,1.4-4.9c0.9-1.6,2.1-3,3.5-4c1.4-1.2,3.2-2.1,4.9-2.8c1.8-0.7,3.7-1.1,5.6-1.1l26.5,0.2
	c6,0,11.7-1.1,17.2-3.3c5.4-2.3,10-5.3,14-8.9c4-3.9,7.2-8.2,9.5-13.3s3.5-10.5,3.5-16.3c0-5.4-1.1-10.7-3.2-15.4s-4.9-9.1-8.4-12.8
	c-3.5-3.9-7.7-6.8-12.6-9.1c-4.7-2.3-10-3.9-15.6-4.4c-0.2,0-0.4,0-0.4,0s-0.2,0-0.4,0H92.9v13.5c0,1.9-0.7,3.3-2.3,4.2
	c-1.6,0.9-4,0.4-7.4-1.8c-0.9-0.5-2.3-1.6-4.4-3c-1.9-1.4-4.4-3.2-7-5.1c-2.6-1.9-5.4-4-8.4-6.1l-8.6-6.5c-1.8-1.4-3.2-2.6-4.4-3.7
	c-1.2-1.1-1.9-2.5-1.9-4c0-1.4,0.7-2.8,2.1-4.2c1.4-1.4,3-3,4.9-4.4c2.1-1.8,4.6-3.7,7.4-6c2.8-2.3,5.6-4.6,8.4-6.7
	c2.8-2.1,5.3-4.2,7.5-6c2.3-1.8,3.9-3,4.7-3.7c2.8-1.9,4.9-2.3,6.7-1.2s2.6,2.8,2.8,5.1v13.7h27.2c0.5,0,1.2,0,1.8,0.2
	c0.5,0.2,1.2,0.2,1.8,0.4c8.9,0.9,17.2,3.3,24.9,7c7.7,3.7,14.5,8.6,20.3,14.7c5.8,6,10.3,12.8,13.5,20.7
	C185.6,73.1,187.2,81.4,187.2,90z"/>
</svg>
