<?xml version="1.0" encoding="utf-8"?>
<!-- Generator: Adobe Illustrator 25.2.1, SVG Export Plug-In . SVG Version: 6.00 Build 0)  -->
<svg version="1.1" id="图层_1" xmlns="http://www.w3.org/2000/svg" xmlns:xlink="http://www.w3.org/1999/xlink" x="0px" y="0px"
	 viewBox="0 0 200 200" style="enable-background:new 0 0 200 200;" xml:space="preserve">
<style type="text/css">
	.st0{fill:#FFE9B4;}
	.st1{fill:#FFB02C;}
	.st2{fill:#FFCA28;}
</style>
<path class="st0" d="M179.4,172.5H20.4c-4.2,0-7.7-3.1-7.7-6.8V54.1c0-3.8,3.4-6.8,7.7-6.8h159.1c4.2,0,7.7,3.1,7.7,6.8v111.5
	C187.1,169.4,183.7,172.5,179.4,172.5z"/>
<path class="st1" d="M100,80.3H12.7V41.1c0-4.3,3.4-7.7,7.7-7.7h59.8c3.4,0,6.4,2.2,7.4,5.5L100,80.3z"/>
<path class="st2" d="M179.4,172.5H20.4c-4.2,0-7.7-3.4-7.7-7.7V65.5c0-4.2,3.4-7.7,7.7-7.7h159.1c4.2,0,7.7,3.4,7.7,7.7v99.3
	C187.1,169,183.7,172.5,179.4,172.5z"/>
</svg>
